SplineFontDB: 3.2
FontName: Plan9
FullName: Plan9
FamilyName: Plan9
Weight: Book
Copyright: 
Version: 1.0
ItalicAngle: 0
UnderlinePosition: -178.176
UnderlineWidth: 54.272
Ascent: 818
Descent: 206
InvalidEm: 0
sfntRevision: 0x00010000
LayerCount: 2
Layer: 0 1 "Back" 1
Layer: 1 1 "Fore" 0
XUID: [1021 988 49226890 163928]
StyleMap: 0x0000
FSType: 0
OS2Version: 1
OS2_WeightWidthSlopeOnly: 0
OS2_UseTypoMetrics: 0
CreationTime: 1571663667
ModificationTime: 1616556720
PfmFamily: 17
TTFWeight: 400
TTFWidth: 5
LineGap: 110
VLineGap: 0
Panose: 2 0 5 3 0 0 0 0 0 0
OS2TypoAscent: 963
OS2TypoAOffset: 0
OS2TypoDescent: -241
OS2TypoDOffset: 0
OS2TypoLinegap: 110
OS2WinAscent: 0
OS2WinAOffset: 0
OS2WinDescent: 0
OS2WinDOffset: 0
HheadAscent: 859
HheadAOffset: 0
HheadDescent: -110
HheadDOffset: 0
OS2SubXSize: 783
OS2SubYSize: 846
OS2SubXOff: 0
OS2SubYOff: 172
OS2SupXSize: 783
OS2SupYSize: 846
OS2SupXOff: 0
OS2SupYOff: 584
OS2StrikeYSize: 61
OS2StrikeYPos: 316
OS2Vendor: 'PfEd'
OS2CodePages: 00000001.00000000
OS2UnicodeRanges: 00000001.00000000.00000000.00000000
MarkAttachClasses: 1
DEI: 91125
ShortTable: maxp 16
  1
  0
  83
  48
  4
  0
  0
  2
  0
  1
  1
  0
  64
  0
  0
  0
EndShort
LangName: 1033 "" "" "Regular" "FontForge 2.0 : Plan9 : 21-10-2019" "" "Version 1.0"
GaspTable: 1 65535 2 0
Encoding: UnicodeBmp
UnicodeInterp: none
NameList: AGL For New Fonts
DisplaySize: -48
AntiAlias: 1
FitToEm: 0
WinInfo: 0 76 28
BeginPrivate: 0
EndPrivate
BeginChars: 65539 83

StartChar: exclam
Encoding: 33 33 8
Width: 233
Flags: W
LayerCount: 2
Fore
SplineSet
35 818 m 5,0,-1
 35 213 l 1,1,-1
 193 213 l 1,2,-1
 193 818 l 5,3,-1
 35 818 l 5,0,-1
120.5 -28 m 128,-1,5
 83 -28 83 -28 51.5 -4 c 128,-1,6
 20 20 20 20 20 61.5 c 128,-1,7
 20 103 20 103 51.5 130.5 c 128,-1,8
 83 158 83 158 120.5 158 c 128,-1,9
 158 158 158 158 182 130.5 c 128,-1,10
 206 103 206 103 206 61.5 c 128,-1,11
 206 20 206 20 182 -4 c 128,-1,4
 158 -28 158 -28 120.5 -28 c 128,-1,5
EndSplineSet
Validated: 9
EndChar

StartChar: quotedbl
Encoding: 34 34 9
Width: 446
Flags: W
LayerCount: 2
Fore
SplineSet
406 804 m 6,0,1
 406 550 l 4,2,3
 399 537 399 537 392 536 c 6,4,-1
 261 536 l 6,5,6
 248 536 248 536 248 550 c 6,7,-1
 248 804 l 6,8,9
 248 817 248 817 268 818 c 6,10,-1
 392 818 l 6,11,12
 406 817 406 817 406 804 c 6,0,1
200 804 m 6,13,-1
 200 550 l 6,14,15
 193 537 193 537 185 536 c 6,16,-1
 55 536 l 6,17,18
 42 536 42 536 41 550 c 6,19,-1
 41 804 l 6,20,21
 41 817 41 817 61 818 c 6,22,-1
 185 818 l 6,23,24
 200 817 200 817 200 804 c 6,13,-1
EndSplineSet
Validated: 1
EndChar

StartChar: quotesingle
Encoding: 39 39 10
Width: 343
Flags: W
LayerCount: 2
Fore
SplineSet
268 804 m 6,0,1
 220 550 l 4,2,3
 213 537 213 537 206 536 c 6,4,-1
 76 536 l 6,5,6
 56 536 56 536 61 550 c 6,7,-1
 110 804 l 6,8,9
 117 817 117 817 131 818 c 6,10,-1
 254 818 l 6,11,12
 275 817 275 817 268 804 c 6,0,1
EndSplineSet
Validated: 1
EndChar

StartChar: parenleft
Encoding: 40 40 11
Width: 315
Flags: W
LayerCount: 2
Fore
SplineSet
268 0 m 1,0,-1
 248 0 l 2,1,2
 48 0 48 0 48 419 c 1,3,4
 48 419 l 1,5,-1
 48 419 l 1,6,7
 48 426 l 0,8,9
 48 845 48 845 254 846 c 2,10,-1
 268 846 l 1,11,-1
 268 687 l 1,12,-1
 268 687 l 1,13,14
 192 687 192 687 193 433 c 2,15,-1
 193 413 l 2,16,17
 193 159 193 159 268 158 c 1,18,-1
 268 158 l 1,19,-1
 268 0 l 1,0,-1
268 687 m 1024,20,-1
268 158 m 1024,21,-1
268 0 m 1024,22,-1
EndSplineSet
Validated: 37
EndChar

StartChar: parenright
Encoding: 41 41 12
Width: 309
Flags: W
LayerCount: 2
Fore
SplineSet
41 0 m 1,0,-1
 61 0 l 2,1,2
 261 0 261 0 261 419 c 1,3,4
 261 419 l 1,5,-1
 261 419 l 1,6,7
 261 426 l 0,8,9
 261 845 261 845 55 846 c 2,10,-1
 41 846 l 1,11,-1
 41 687 l 1,12,-1
 41 687 l 1,13,14
 117 687 117 687 117 433 c 2,15,-1
 117 413 l 2,16,17
 117 159 117 159 41 158 c 1,18,-1
 41 158 l 1,19,-1
 41 0 l 1,0,-1
41 687 m 1024,20,-1
41 158 m 1024,21,-1
41 0 m 1024,22,-1
EndSplineSet
Validated: 5
EndChar

StartChar: comma
Encoding: 44 44 13
Width: 363
Flags: W
LayerCount: 2
Fore
SplineSet
289 158 m 2,0,1
 241 -96 l 0,2,3
 234 -109 234 -109 226 -110 c 2,4,-1
 96 -110 l 2,5,6
 76 -110 76 -110 83 -96 c 2,7,-1
 131 158 l 2,8,9
 138 171 138 171 152 172 c 2,10,-1
 274 172 l 2,11,12
 296 171 296 171 289 158 c 2,0,1
EndSplineSet
Validated: 1
EndChar

StartChar: hyphen
Encoding: 45 45 14
Width: 548
Flags: WO
LayerCount: 2
Fore
SplineSet
105 502 m 1,0,-1
 448 502 l 1,1,-1
 448 365 l 1,2,-1
 105 365 l 1,3,-1
 105 502 l 1,0,-1
EndSplineSet
EndChar

StartChar: period
Encoding: 46 46 15
Width: 267
Flags: W
LayerCount: 2
Fore
SplineSet
213 158 m 2,0,1
 213 13 l 0,2,3
 213 0 213 0 200 0 c 2,4,-1
 69 0 l 2,5,6
 56 0 56 0 55 13 c 2,7,-1
 55 158 l 2,8,9
 55 171 55 171 69 172 c 2,10,-1
 200 172 l 2,11,12
 213 171 213 171 213 158 c 2,0,1
EndSplineSet
Validated: 1
EndChar

StartChar: slash
Encoding: 47 47 16
Width: 548
Flags: W
LayerCount: 2
Fore
SplineSet
330 846 m 1,0,-1
 61 0 l 1,1,-1
 213 0 l 1,2,-1
 488 846 l 1,3,-1
 330 846 l 1,0,-1
EndSplineSet
EndChar

StartChar: zero
Encoding: 48 48 17
Width: 548
Flags: W
LayerCount: 2
Fore
SplineSet
241 474 m 1,0,-1
 296 474 l 1,1,-1
 296 365 l 1,2,-1
 241 365 l 1,3,-1
 241 474 l 1,0,-1
330 618 m 2,4,-1
 330 226 l 2,5,6
 330 157 330 157 274 158 c 2,7,-1
 268 158 l 2,8,9
 207 158 207 158 206 226 c 2,10,-1
 206 618 l 2,11,12
 206 687 206 687 268 687 c 2,13,-1
 274 687 l 2,14,15
 330 687 330 687 330 618 c 2,4,-1
55 674 m 2,16,-1
 55 137 l 2,17,18
 55 82 55 82 96 41 c 0,19,20
 135 2 135 2 185 0 c 2,21,-1
 350 -7 l 2,22,23
 398 -7 398 -7 443 38 c 128,-1,24
 488 83 488 83 488 137 c 2,25,-1
 488 674 l 2,26,27
 488 729 488 729 443 773.5 c 128,-1,28
 398 818 398 818 344 818 c 2,29,-1
 200 818 l 2,30,31
 152 818 152 818 93 766 c 0,32,33
 55 729 55 729 55 674 c 2,16,-1
EndSplineSet
Validated: 41
EndChar

StartChar: one
Encoding: 49 49 18
Width: 548
Flags: W
LayerCount: 2
Fore
SplineSet
124 659 m 5,0,-1
 124 818 l 5,1,-1
 330 818 l 6,2,3
 358 818 358 818 378 794 c 132,-1,4
 398 770 398 770 398 742 c 6,5,-1
 398 0 l 1,6,-1
 248 0 l 1,7,-1
 248 646 l 6,8,9
 248 659 248 659 226 659 c 6,10,-1
 124 659 l 5,0,-1
EndSplineSet
Validated: 1
EndChar

StartChar: two
Encoding: 50 50 19
Width: 548
Flags: W
LayerCount: 2
Fore
SplineSet
454 0 m 1,0,-1
 454 158 l 1,1,-1
 226 158 l 2,2,3
 213 158 213 158 213 172 c 2,4,-1
 213 316 l 2,5,6
 213 329 213 329 226 330 c 2,7,-1
 398 330 l 2,8,9
 426 330 426 330 450 350.5 c 128,-1,10
 474 371 474 371 474 406 c 2,11,-1
 474 742 l 2,12,13
 474 770 474 770 453.5 794 c 128,-1,14
 433 818 433 818 398 818 c 2,15,-1
 61 818 l 1,16,-1
 61 659 l 1,17,-1
 302 659 l 2,18,19
 322 659 322 659 323 646 c 2,20,-1
 323 502 l 2,21,22
 323 489 323 489 302 488 c 2,23,-1
 137 488 l 2,24,25
 109 488 109 488 85 460.5 c 128,-1,26
 61 433 61 433 61 406 c 2,27,-1
 61 76 l 2,28,29
 61 48 61 48 82 24 c 128,-1,30
 103 0 103 0 137 0 c 2,31,-1
 454 0 l 1,0,-1
EndSplineSet
Validated: 9
EndChar

StartChar: three
Encoding: 51 51 20
Width: 548
Flags: W
LayerCount: 2
Fore
SplineSet
323 330 m 2,0,-1
 96 330 l 1,1,-1
 96 495 l 1,2,-1
 274 495 l 2,3,4
 287 495 287 495 289 509 c 2,5,-1
 289 646 l 6,6,7
 289 659 289 659 274 659 c 6,8,-1
 96 659 l 5,9,-1
 96 818 l 5,10,11
 233 818 233 818 365 818 c 4,12,13
 393 818 393 818 419.5 794 c 132,-1,14
 446 770 446 770 446 742 c 6,15,-1
 446 488 l 2,16,17
 459 481 459 481 477 460.5 c 128,-1,18
 495 440 495 440 495 413 c 2,19,-1
 495 76 l 2,20,21
 495 48 495 48 470.5 24 c 128,-1,22
 446 0 446 0 413 0 c 2,23,-1
 96 0 l 1,24,-1
 96 158 l 1,25,-1
 323 158 l 2,26,27
 336 158 336 158 337 172 c 2,28,-1
 337 316 l 2,29,30
 336 330 336 330 323 330 c 2,0,-1
446 488 m 1024,31,-1
EndSplineSet
Validated: 1
EndChar

StartChar: four
Encoding: 52 52 21
Width: 548
Flags: W
LayerCount: 2
Fore
SplineSet
323 818 m 5,0,-1
 474 818 l 5,1,-1
 474 0 l 1,2,-1
 323 0 l 1,3,-1
 323 282 l 1,4,-1
 200 282 l 1,5,-1
 137 282 l 2,6,7
 54 282 54 282 61 378 c 2,8,-1
 96 818 l 5,9,-1
 241 818 l 5,10,-1
 206 461 l 2,11,12
 206 441 206 441 220 440 c 2,13,-1
 302 440 l 2,14,15
 322 440 322 440 323 461 c 2,16,-1
 323 818 l 5,0,-1
EndSplineSet
Validated: 33
EndChar

StartChar: five
Encoding: 53 53 22
Width: 548
Flags: W
LayerCount: 2
Fore
SplineSet
83 0 m 1,0,-1
 83 158 l 1,1,-1
 302 158 l 2,2,3
 322 158 322 158 323 172 c 2,4,-1
 323 357 l 6,5,6
 323 370 323 370 302 371 c 6,7,-1
 137 371 l 6,8,9
 109 371 109 371 86 392 c 4,10,11
 58 410 58 410 61 446 c 6,12,-1
 103 818 l 2,13,-1
 106 818 l 0,14,15
 108 818 108 818 110 818 c 2,16,-1
 461 818 l 1,17,-1
 461 659 l 1,18,-1
 261 659 l 2,19,20
 250 659 250 659 248 646 c 2,21,-1
 226 543 l 6,22,23
 226 530 226 530 241 529 c 6,24,-1
 398 529 l 6,25,26
 426 529 426 529 450 501.5 c 132,-1,27
 474 474 474 474 474 446 c 6,28,-1
 474 76 l 2,29,30
 474 48 474 48 453.5 24 c 128,-1,31
 433 0 433 0 398 0 c 2,32,-1
 83 0 l 1,0,-1
EndSplineSet
Validated: 33
EndChar

StartChar: six
Encoding: 54 54 23
Width: 548
Flags: W
LayerCount: 2
Fore
SplineSet
327 158 m 2,0,-1
 224 158 l 2,1,2
 211 158 211 158 203 172 c 2,3,-1
 203 344 l 2,4,5
 203 357 203 357 224 357 c 2,6,-1
 327 357 l 2,7,8
 340 357 340 357 341 344 c 2,9,-1
 341 172 l 2,10,11
 340 158 340 158 327 158 c 2,0,-1
499 83 m 2,12,-1
 499 433 l 2,13,14
 499 461 499 461 475 488 c 128,-1,15
 451 515 451 515 424 515 c 2,16,-1
 224 515 l 2,17,18
 211 515 211 515 203 502 c 1,19,-1
 203 646 l 2,20,21
 203 659 203 659 224 659 c 2,22,-1
 451 659 l 1,23,-1
 451 818 l 1,24,-1
 128 818 l 2,25,26
 100 818 100 818 73 794 c 128,-1,27
 46 770 46 770 46 742 c 2,28,-1
 46 83 l 2,29,30
 46 55 46 55 70 27.5 c 128,-1,31
 94 0 94 0 128 0 c 2,32,-1
 424 0 l 2,33,34
 452 0 452 0 475.5 27.5 c 128,-1,35
 499 55 499 55 499 83 c 2,12,-1
EndSplineSet
EndChar

StartChar: seven
Encoding: 55 55 24
Width: 548
Flags: W
LayerCount: 2
Fore
SplineSet
274 461 m 1,0,-1
 157 461 l 1,1,-1
 157 337 l 1,2,-1
 246 337 l 1,3,-1
 171 0 l 1,4,-1
 329 0 l 1,5,-1
 494 742 l 2,6,7
 501 755 501 755 467 791 c 0,8,9
 439 819 439 819 419 818 c 2,10,-1
 41 818 l 1,11,-1
 41 659 l 1,12,-1
 295 659 l 2,13,14
 326 659 326 659 322 646 c 2,15,-1
 274 461 l 1,0,-1
EndSplineSet
EndChar

StartChar: eight
Encoding: 56 56 25
Width: 548
Flags: W
LayerCount: 2
Fore
SplineSet
114 495 m 1,0,-1
 114 735 l 2,1,2
 114 763 114 763 138.5 790.5 c 128,-1,3
 163 818 163 818 196 818 c 2,4,-1
 355 818 l 2,5,6
 383 818 383 818 406.5 794 c 128,-1,7
 430 770 430 770 430 735 c 2,8,-1
 430 495 l 1,9,10
 458 495 458 495 485.5 467.5 c 128,-1,11
 513 440 513 440 513 413 c 2,12,-1
 513 76 l 2,13,14
 513 48 513 48 489 24 c 128,-1,15
 465 0 465 0 430 0 c 2,16,-1
 114 0 l 2,17,18
 86 0 86 0 62.5 24 c 128,-1,19
 39 48 39 48 39 76 c 2,20,-1
 39 413 l 2,21,22
 39 441 39 441 62.5 468 c 128,-1,23
 86 495 86 495 114 495 c 1,0,-1
293 659 m 2,24,25
 293 672 293 672 279 674 c 2,26,-1
 272 674 l 2,27,28
 259 674 259 674 259 659 c 2,29,-1
 259 509 l 2,30,31
 259 496 259 496 272 495 c 2,32,-1
 279 495 l 2,33,34
 292 495 292 495 293 509 c 2,35,-1
 293 659 l 2,24,25
355 316 m 2,36,37
 355 329 355 329 341 330 c 2,38,-1
 211 330 l 2,39,40
 198 330 198 330 196 316 c 2,41,-1
 196 172 l 2,42,43
 196 159 196 159 211 158 c 2,44,-1
 341 158 l 2,45,46
 354 158 354 158 355 172 c 2,47,-1
 355 316 l 2,36,37
EndSplineSet
EndChar

StartChar: nine
Encoding: 57 57 26
Width: 548
Flags: W
LayerCount: 2
Fore
SplineSet
220 659 m 2,0,-1
 323 659 l 2,1,2
 336 659 336 659 337 646 c 2,3,-1
 337 509 l 2,4,5
 337 496 337 496 323 495 c 2,6,-1
 220 495 l 2,7,8
 200 495 200 495 199 509 c 2,9,-1
 199 646 l 2,10,11
 200 659 200 659 220 659 c 2,0,-1
42 742 m 2,12,-1
 42 413 l 2,13,14
 42 385 42 385 66 361 c 128,-1,15
 90 337 90 337 124 337 c 2,16,-1
 323 337 l 2,17,18
 336 337 336 337 337 350 c 1,19,-1
 337 172 l 2,20,21
 337 159 337 159 323 158 c 2,22,-1
 90 158 l 1,23,-1
 90 0 l 1,24,-1
 420 0 l 2,25,26
 448 0 448 0 471.5 24 c 128,-1,27
 495 48 495 48 495 83 c 2,28,-1
 495 742 l 2,29,30
 495 770 495 770 471 794 c 128,-1,31
 447 818 447 818 420 818 c 2,32,-1
 124 818 l 2,33,34
 96 818 96 818 69 794 c 128,-1,35
 42 770 42 770 42 742 c 2,12,-1
EndSplineSet
EndChar

StartChar: question
Encoding: 63 63 27
Width: 528
Flags: W
LayerCount: 2
Fore
SplineSet
302 144 m 2,0,1
 302 13 l 0,2,3
 302 0 302 0 289 0 c 2,4,-1
 158 0 l 2,5,6
 145 0 145 0 144 13 c 2,7,-1
 144 144 l 2,8,9
 144 157 144 157 158 158 c 2,10,-1
 289 158 l 2,11,12
 302 157 302 157 302 144 c 2,0,1
144 226 m 1,13,-1
 144 406 l 2,14,15
 144 434 144 434 168.5 461 c 128,-1,16
 193 488 193 488 220 488 c 2,17,-1
 289 488 l 2,18,19
 309 488 309 488 309 502 c 2,20,-1
 309 646 l 6,21,22
 309 659 309 659 289 659 c 6,23,-1
 48 659 l 5,24,-1
 48 818 l 5,25,-1
 385 818 l 6,26,27
 420 818 420 818 440.5 794 c 132,-1,28
 461 770 461 770 461 742 c 6,29,-1
 461 406 l 2,30,31
 461 371 461 371 437 350.5 c 128,-1,32
 413 330 413 330 385 330 c 2,33,-1
 316 330 l 2,34,35
 303 330 303 330 302 316 c 2,36,-1
 302 289 l 1,37,-1
 302 226 l 1,38,-1
 144 226 l 1,13,-1
EndSplineSet
Validated: 1
EndChar

StartChar: A
Encoding: 65 65 28
Width: 522
Flags: W
LayerCount: 2
Fore
SplineSet
350 0 m 1,0,-1
 337 110 l 1,1,-1
 185 110 l 1,2,-1
 172 0 l 1,3,-1
 13 0 l 1,4,-1
 144 818 l 1,5,-1
 385 818 l 1,6,-1
 509 0 l 1,7,-1
 350 0 l 1,0,-1
261 659 m 1,8,-1
 213 268 l 1,9,-1
 316 268 l 1,10,-1
 261 659 l 1,8,-1
EndSplineSet
Validated: 1
EndChar

StartChar: B
Encoding: 66 66 29
Width: 548
Flags: W
LayerCount: 2
Fore
SplineSet
509 365 m 2,0,-1
 509 76 l 2,1,2
 509 48 509 48 485 24 c 128,-1,3
 461 0 461 0 426 0 c 2,4,-1
 35 0 l 1,5,-1
 35 818 l 5,6,-1
 426 818 l 6,7,8
 454 818 454 818 481.5 794 c 132,-1,9
 509 770 509 770 509 742 c 6,10,-1
 509 522 l 2,11,12
 509 494 509 494 485 467 c 128,-1,13
 461 440 461 440 426 440 c 1,14,15
 454 440 454 440 481.5 416.5 c 128,-1,16
 509 393 509 393 509 365 c 2,0,-1
193 522 m 1,17,-1
 337 522 l 2,18,19
 350 522 350 522 350 536 c 2,20,-1
 350 646 l 6,21,22
 350 659 350 659 337 659 c 6,23,-1
 193 659 l 5,24,-1
 193 522 l 1,17,-1
193 158 m 1,25,-1
 337 158 l 2,26,27
 350 158 350 158 350 172 c 2,28,-1
 350 344 l 2,29,30
 350 357 350 357 337 365 c 2,31,-1
 193 365 l 1,32,-1
 193 158 l 1,25,-1
EndSplineSet
Validated: 1
EndChar

StartChar: C
Encoding: 67 67 30
Width: 474
Flags: W
LayerCount: 2
Fore
SplineSet
426 158 m 1,0,-1
 226 158 l 2,1,2
 206 158 206 158 206 172 c 2,3,-1
 206 646 l 2,4,5
 206 659 206 659 226 659 c 2,6,-1
 426 659 l 1,7,-1
 426 818 l 1,8,-1
 124 818 l 2,9,10
 96 818 96 818 75.5 794 c 128,-1,11
 55 770 55 770 55 742 c 2,12,-1
 55 76 l 2,13,14
 55 48 55 48 75.5 24 c 128,-1,15
 96 0 96 0 124 0 c 2,16,-1
 426 0 l 1,17,-1
 426 158 l 1,0,-1
EndSplineSet
Validated: 9
EndChar

StartChar: D
Encoding: 68 68 31
Width: 563
Flags: W
LayerCount: 2
Fore
SplineSet
515 529 m 2,0,-1
 515 289 l 2,1,2
 515 89 515 89 481 55 c 0,3,4
 453 27 453 27 425.5 13.5 c 128,-1,5
 398 0 398 0 350 0 c 2,6,-1
 48 0 l 1,7,-1
 48 818 l 1,8,-1
 350 818 l 2,9,10
 405 818 405 818 426 811 c 0,11,12
 454 804 454 804 481 770 c 0,13,14
 515 729 515 729 515 529 c 2,0,-1
330 659 m 2,15,-1
 200 659 l 1,16,-1
 200 158 l 1,17,-1
 330 158 l 2,18,19
 343 158 343 158 350 165 c 128,-1,20
 357 172 357 172 357 185 c 2,21,-1
 357 632 l 2,22,23
 357 645 357 645 350 652 c 128,-1,24
 343 659 343 659 330 659 c 2,15,-1
EndSplineSet
Validated: 1
EndChar

StartChar: E
Encoding: 69 69 32
Width: 452
Flags: W
LayerCount: 2
Fore
SplineSet
398 659 m 1,0,-1
 206 659 l 1,1,-1
 206 509 l 1,2,-1
 378 509 l 1,3,-1
 378 350 l 1,4,-1
 206 350 l 1,5,-1
 206 158 l 1,6,-1
 398 158 l 1,7,-1
 398 0 l 1,8,-1
 55 0 l 1,9,-1
 55 818 l 1,10,-1
 398 818 l 1,11,-1
 398 659 l 1,0,-1
EndSplineSet
Validated: 1
EndChar

StartChar: F
Encoding: 70 70 33
Width: 439
Flags: W
LayerCount: 2
Fore
SplineSet
398 659 m 1,0,-1
 206 659 l 1,1,-1
 206 509 l 1,2,-1
 365 509 l 1,3,-1
 365 344 l 1,4,-1
 206 344 l 1,5,-1
 206 0 l 1,6,-1
 55 0 l 1,7,-1
 55 818 l 1,8,-1
 398 818 l 1,9,-1
 398 659 l 1,0,-1
EndSplineSet
Validated: 1
EndChar

StartChar: G
Encoding: 71 71 34
Width: 563
Flags: W
LayerCount: 2
Fore
SplineSet
282 467 m 1,0,-1
 509 467 l 2,1,2
 522 467 522 467 522 454 c 2,3,-1
 522 76 l 2,4,5
 522 48 522 48 494.5 24 c 128,-1,6
 467 0 467 0 440 0 c 2,7,-1
 124 0 l 2,8,9
 96 0 96 0 75.5 24 c 128,-1,10
 55 48 55 48 55 76 c 2,11,-1
 55 742 l 2,12,13
 55 770 55 770 75.5 794 c 128,-1,14
 96 818 96 818 124 818 c 2,15,-1
 440 818 l 1,16,-1
 440 659 l 1,17,-1
 226 659 l 2,18,19
 206 659 206 659 206 646 c 2,20,-1
 206 172 l 2,21,22
 206 159 206 159 226 158 c 2,23,-1
 357 158 l 6,24,25
 370 158 370 158 371 172 c 6,26,-1
 371 296 l 6,27,28
 371 316 371 316 357 316 c 6,29,-1
 282 316 l 1,30,-1
 282 467 l 1,0,-1
EndSplineSet
Validated: 1
EndChar

StartChar: H
Encoding: 72 72 35
Width: 570
Flags: W
LayerCount: 2
Fore
SplineSet
365 344 m 1,0,-1
 365 0 l 1,1,-1
 522 0 l 1,2,-1
 522 818 l 5,3,-1
 365 818 l 5,4,-1
 365 509 l 1,5,-1
 206 509 l 1,6,-1
 206 818 l 5,7,-1
 55 818 l 5,8,-1
 55 0 l 1,9,-1
 206 0 l 1,10,-1
 206 344 l 1,11,-1
 365 344 l 1,0,-1
EndSplineSet
Validated: 9
EndChar

StartChar: I
Encoding: 73 73 36
Width: 281
Flags: W
LayerCount: 2
Fore
SplineSet
61 818 m 5,0,-1
 61 0 l 1,1,-1
 213 0 l 1,2,-1
 213 818 l 5,3,-1
 61 818 l 5,0,-1
EndSplineSet
Validated: 9
EndChar

StartChar: J
Encoding: 74 74 37
Width: 452
Flags: W
LayerCount: 2
Fore
SplineSet
41 158 m 1,0,-1
 41 0 l 1,1,-1
 330 0 l 2,2,3
 358 0 358 0 378 24 c 128,-1,4
 398 48 398 48 398 76 c 2,5,-1
 398 818 l 1,6,-1
 248 818 l 1,7,-1
 248 172 l 2,8,9
 248 159 248 159 226 158 c 2,10,-1
 41 158 l 1,0,-1
EndSplineSet
Validated: 9
EndChar

StartChar: K
Encoding: 75 75 38
Width: 570
Flags: W
LayerCount: 2
Fore
SplineSet
185 818 m 5,0,-1
 185 543 l 1,1,-1
 337 818 l 5,2,-1
 509 818 l 5,3,-1
 337 495 l 1,4,-1
 543 0 l 1,5,-1
 371 0 l 1,6,-1
 248 309 l 1,7,-1
 185 193 l 1,8,-1
 185 0 l 1,9,-1
 28 0 l 1,10,-1
 28 818 l 5,11,-1
 185 818 l 5,0,-1
EndSplineSet
Validated: 1
EndChar

StartChar: L
Encoding: 76 76 39
Width: 446
Flags: W
LayerCount: 2
Fore
SplineSet
200 818 m 5,0,-1
 200 158 l 1,1,-1
 398 158 l 1,2,-1
 398 0 l 1,3,-1
 41 0 l 1,4,-1
 41 818 l 5,5,-1
 200 818 l 5,0,-1
EndSplineSet
Validated: 1
EndChar

StartChar: M
Encoding: 77 77 40
Width: 748
Flags: W
LayerCount: 2
Fore
SplineSet
274 818 m 5,0,-1
 61 818 l 5,1,-1
 61 0 l 1,2,-1
 213 0 l 1,3,-1
 213 502 l 1,4,-1
 323 0 l 1,5,-1
 446 0 l 1,6,-1
 550 502 l 1,7,-1
 550 0 l 1,8,-1
 708 0 l 1,9,-1
 708 818 l 5,10,-1
 495 818 l 5,11,-1
 378 344 l 1,12,-1
 274 818 l 5,0,-1
EndSplineSet
Validated: 9
EndChar

StartChar: N
Encoding: 78 78 41
Width: 570
Flags: W
LayerCount: 2
Fore
SplineSet
35 818 m 5,0,-1
 35 0 l 1,1,-1
 193 0 l 1,2,-1
 193 461 l 1,3,-1
 378 0 l 1,4,-1
 536 0 l 1,5,-1
 536 818 l 5,6,-1
 378 818 l 5,7,-1
 378 378 l 1,8,-1
 193 818 l 5,9,-1
 35 818 l 5,0,-1
EndSplineSet
Validated: 9
EndChar

StartChar: O
Encoding: 79 79 42
Width: 548
Flags: W
LayerCount: 2
Fore
SplineSet
357 646 m 6,0,-1
 357 172 l 2,1,2
 357 159 357 159 344 158 c 2,3,-1
 213 158 l 2,4,5
 200 158 200 158 200 172 c 2,6,-1
 200 646 l 6,7,8
 200 659 200 659 213 659 c 6,9,-1
 344 659 l 6,10,11
 357 659 357 659 357 646 c 6,0,-1
48 742 m 6,12,-1
 48 76 l 2,13,14
 48 48 48 48 68.5 24 c 128,-1,15
 89 0 89 0 117 0 c 2,16,-1
 433 0 l 2,17,18
 461 0 461 0 488 24 c 128,-1,19
 515 48 515 48 515 76 c 2,20,-1
 515 742 l 6,21,22
 515 770 515 770 491 794 c 132,-1,23
 467 818 467 818 433 818 c 6,24,-1
 117 818 l 6,25,26
 89 818 89 818 68.5 794 c 132,-1,27
 48 770 48 770 48 742 c 6,12,-1
EndSplineSet
Validated: 9
EndChar

StartChar: P
Encoding: 80 80 43
Width: 522
Flags: W
LayerCount: 2
Fore
SplineSet
502 742 m 6,0,-1
 502 413 l 2,1,2
 502 385 502 385 478 361 c 128,-1,3
 454 337 454 337 426 337 c 2,4,-1
 185 337 l 1,5,-1
 185 0 l 1,6,-1
 28 0 l 1,7,-1
 28 818 l 5,8,-1
 426 818 l 6,9,10
 454 818 454 818 478 794 c 132,-1,11
 502 770 502 770 502 742 c 6,0,-1
185 495 m 1,12,-1
 330 495 l 2,13,14
 343 495 343 495 344 509 c 2,15,-1
 344 646 l 6,16,17
 344 659 344 659 330 659 c 6,18,-1
 185 659 l 5,19,-1
 185 495 l 1,12,-1
EndSplineSet
Validated: 1
EndChar

StartChar: Q
Encoding: 81 81 44
Width: 548
Flags: W
LayerCount: 2
Fore
SplineSet
344 -110 m 1,0,-1
 282 0 l 1,1,-1
 117 0 l 2,2,3
 89 0 89 0 68.5 24 c 128,-1,4
 48 48 48 48 48 76 c 2,5,-1
 48 742 l 6,6,7
 48 770 48 770 68.5 794 c 132,-1,8
 89 818 89 818 117 818 c 6,9,-1
 433 818 l 6,10,11
 461 818 461 818 488 794 c 132,-1,12
 515 770 515 770 515 742 c 6,13,-1
 515 76 l 2,14,15
 515 48 515 48 491 24 c 128,-1,16
 467 0 467 0 440 0 c 1,17,-1
 502 -110 l 1,18,-1
 344 -110 l 1,0,-1
357 172 m 2,19,-1
 357 646 l 6,20,21
 357 659 357 659 344 659 c 6,22,-1
 213 659 l 6,23,24
 200 659 200 659 200 646 c 6,25,-1
 200 172 l 2,26,27
 200 159 200 159 206 158 c 2,28,-1
 344 158 l 2,29,30
 357 159 357 159 357 172 c 2,19,-1
EndSplineSet
Validated: 1
EndChar

StartChar: R
Encoding: 82 82 45
Width: 548
Flags: W
LayerCount: 2
Fore
SplineSet
515 742 m 6,0,-1
 515 433 l 2,1,2
 515 405 515 405 488 377.5 c 128,-1,3
 461 350 461 350 433 337 c 1,4,-1
 515 0 l 1,5,-1
 344 0 l 1,6,-1
 261 337 l 1,7,-1
 200 337 l 1,8,-1
 200 0 l 1,9,-1
 48 0 l 1,10,-1
 48 818 l 5,11,-1
 433 818 l 6,12,13
 461 818 461 818 488 794 c 132,-1,14
 515 770 515 770 515 742 c 6,0,-1
200 495 m 1,15,-1
 344 495 l 2,16,17
 357 495 357 495 357 509 c 2,18,-1
 357 646 l 6,19,20
 357 659 357 659 344 659 c 6,21,-1
 200 659 l 5,22,-1
 200 495 l 1,15,-1
EndSplineSet
Validated: 1
EndChar

StartChar: S
Encoding: 83 83 46
Width: 494
Flags: W
LayerCount: 2
Fore
SplineSet
440 818 m 5,0,-1
 440 659 l 5,1,-1
 213 659 l 6,2,3
 200 659 200 659 200 646 c 6,4,-1
 200 536 l 2,5,6
 200 523 200 523 213 522 c 2,7,-1
 385 522 l 2,8,9
 413 522 413 522 437 494.5 c 128,-1,10
 461 467 461 467 461 440 c 2,11,-1
 461 76 l 2,12,13
 461 48 461 48 440 24 c 128,-1,14
 419 0 419 0 385 0 c 2,15,-1
 48 0 l 1,16,-1
 48 158 l 1,17,-1
 289 158 l 2,18,19
 309 158 309 158 309 172 c 2,20,-1
 309 344 l 2,21,22
 309 364 309 364 289 365 c 2,23,-1
 124 365 l 2,24,25
 96 365 96 365 72 389 c 128,-1,26
 48 413 48 413 48 440 c 2,27,-1
 48 742 l 6,28,29
 48 770 48 770 68.5 794 c 132,-1,30
 89 818 89 818 124 818 c 6,31,-1
 440 818 l 5,0,-1
EndSplineSet
Validated: 1
EndChar

StartChar: T
Encoding: 84 84 47
Width: 439
Flags: W
LayerCount: 2
Fore
SplineSet
419 818 m 5,0,-1
 28 818 l 5,1,-1
 28 659 l 5,2,-1
 144 659 l 5,3,-1
 144 0 l 1,4,-1
 296 0 l 1,5,-1
 296 659 l 5,6,-1
 419 659 l 5,7,-1
 419 818 l 5,0,-1
EndSplineSet
Validated: 9
EndChar

StartChar: U
Encoding: 85 85 48
Width: 570
Flags: W
LayerCount: 2
Fore
SplineSet
124 0 m 2,0,-1
 440 0 l 2,1,2
 468 0 468 0 495 24 c 128,-1,3
 522 48 522 48 522 76 c 2,4,-1
 522 818 l 5,5,-1
 365 818 l 5,6,-1
 365 172 l 2,7,8
 365 159 365 159 350 158 c 2,9,-1
 226 158 l 2,10,11
 206 158 206 158 206 172 c 2,12,-1
 206 818 l 5,13,-1
 55 818 l 5,14,-1
 55 76 l 2,15,16
 55 48 55 48 75.5 24 c 128,-1,17
 96 0 96 0 124 0 c 2,0,-1
EndSplineSet
Validated: 9
EndChar

StartChar: V
Encoding: 86 86 49
Width: 556
Flags: W
LayerCount: 2
Fore
SplineSet
185 818 m 5,0,-1
 274 241 l 1,1,-1
 365 818 l 5,2,-1
 515 818 l 5,3,-1
 385 0 l 1,4,-1
 165 0 l 1,5,-1
 35 818 l 5,6,-1
 185 818 l 5,0,-1
EndSplineSet
Validated: 1
EndChar

StartChar: W
Encoding: 87 87 50
Width: 783
Flags: W
LayerCount: 2
Fore
SplineSet
165 818 m 1,0,-1
 241 350 l 1,1,-1
 337 818 l 5,2,-1
 454 818 l 5,3,-1
 550 350 l 1,4,-1
 618 818 l 1,5,-1
 770 818 l 1,6,-1
 639 0 l 1,7,-1
 495 0 l 1,8,-1
 398 509 l 1,9,-1
 289 0 l 1,10,-1
 152 0 l 1,11,-1
 20 818 l 1,12,-1
 165 818 l 1,0,-1
EndSplineSet
Validated: 1
EndChar

StartChar: X
Encoding: 88 88 51
Width: 528
Flags: W
LayerCount: 2
Fore
SplineSet
522 0 m 1,0,-1
 350 440 l 1,1,-1
 502 818 l 1,2,-1
 337 818 l 1,3,-1
 268 646 l 1,4,-1
 200 818 l 1,5,-1
 28 818 l 1,6,-1
 185 440 l 1,7,-1
 13 0 l 1,8,-1
 185 0 l 1,9,-1
 268 220 l 1,10,-1
 350 0 l 1,11,-1
 522 0 l 1,0,-1
EndSplineSet
Validated: 9
EndChar

StartChar: Y
Encoding: 89 89 52
Width: 480
Flags: W
LayerCount: 2
Fore
SplineSet
323 426 m 5,0,-1
 323 426 l 5,1,-1
 467 818 l 5,2,-1
 316 818 l 5,3,-1
 248 639 l 5,4,-1
 172 818 l 5,5,-1
 13 818 l 5,6,-1
 165 426 l 5,7,-1
 165 0 l 1,8,-1
 323 0 l 1,9,-1
 323 426 l 5,0,-1
EndSplineSet
Validated: 5
EndChar

StartChar: Z
Encoding: 90 90 53
Width: 535
Flags: W
LayerCount: 2
Fore
SplineSet
61 818 m 5,0,-1
 61 659 l 5,1,-1
 282 659 l 5,2,-1
 20 0 l 1,3,-1
 502 0 l 1,4,-1
 502 158 l 1,5,-1
 248 158 l 1,6,-1
 509 818 l 5,7,-1
 61 818 l 5,0,-1
EndSplineSet
Validated: 9
EndChar

StartChar: bracketleft
Encoding: 91 91 54
Width: 343
Flags: W
LayerCount: 2
Fore
SplineSet
282 0 m 1,0,-1
 124 0 l 2,1,2
 96 0 96 0 75.5 24 c 128,-1,3
 55 48 55 48 55 76 c 2,4,-1
 55 770 l 2,5,6
 55 798 55 798 75.5 822 c 128,-1,7
 96 846 96 846 124 846 c 2,8,-1
 282 846 l 1,9,-1
 282 687 l 1,10,-1
 226 687 l 2,11,12
 213 687 213 687 206 674 c 2,13,-1
 206 172 l 2,14,15
 206 159 206 159 226 158 c 2,16,-1
 282 158 l 1,17,-1
 282 0 l 1,0,-1
282 687 m 1024,18,-1
282 158 m 1024,19,-1
282 0 m 1024,20,-1
EndSplineSet
Validated: 1
EndChar

StartChar: backslash
Encoding: 92 92 55
Width: 500
Flags: W
LayerCount: 2
Fore
SplineSet
193 846 m 1,0,-1
 467 0 l 1,1,-1
 309 0 l 1,2,-1
 41 846 l 1,3,-1
 193 846 l 1,0,-1
EndSplineSet
Validated: 1
EndChar

StartChar: bracketright
Encoding: 93 93 56
Width: 384
Flags: W
LayerCount: 2
Fore
SplineSet
89 0 m 1,0,-1
 241 0 l 2,1,2
 269 0 269 0 292.5 24 c 128,-1,3
 316 48 316 48 316 76 c 2,4,-1
 316 770 l 2,5,6
 316 798 316 798 295 822 c 128,-1,7
 274 846 274 846 241 846 c 2,8,-1
 89 846 l 1,9,-1
 89 687 l 1,10,-1
 144 687 l 2,11,12
 157 687 157 687 158 674 c 2,13,-1
 158 172 l 2,14,15
 158 159 158 159 144 158 c 2,16,-1
 89 158 l 1,17,-1
 89 0 l 1,0,-1
89 687 m 1024,18,-1
89 158 m 1024,19,-1
89 0 m 1024,20,-1
EndSplineSet
Validated: 9
EndChar

StartChar: a
Encoding: 97 97 57
Width: 522
Flags: W
LayerCount: 2
Fore
SplineSet
350 0 m 1,0,-1
 337 110 l 1,1,-1
 185 110 l 1,2,-1
 172 0 l 1,3,-1
 13 0 l 1,4,-1
 144 818 l 1,5,-1
 385 818 l 1,6,-1
 509 0 l 1,7,-1
 350 0 l 1,0,-1
261 659 m 1,8,-1
 213 268 l 1,9,-1
 316 268 l 1,10,-1
 261 659 l 1,8,-1
EndSplineSet
Validated: 1
EndChar

StartChar: b
Encoding: 98 98 58
Width: 548
Flags: W
LayerCount: 2
Fore
SplineSet
509 365 m 2,0,-1
 509 76 l 2,1,2
 509 48 509 48 485 24 c 128,-1,3
 461 0 461 0 426 0 c 2,4,-1
 35 0 l 1,5,-1
 35 818 l 5,6,-1
 426 818 l 6,7,8
 454 818 454 818 481.5 794 c 132,-1,9
 509 770 509 770 509 742 c 6,10,-1
 509 522 l 2,11,12
 509 494 509 494 485 467 c 128,-1,13
 461 440 461 440 426 440 c 1,14,15
 454 440 454 440 481.5 416.5 c 128,-1,16
 509 393 509 393 509 365 c 2,0,-1
193 522 m 1,17,-1
 337 522 l 2,18,19
 350 522 350 522 350 536 c 2,20,-1
 350 646 l 6,21,22
 350 659 350 659 337 659 c 6,23,-1
 193 659 l 5,24,-1
 193 522 l 1,17,-1
193 158 m 1,25,-1
 337 158 l 2,26,27
 350 158 350 158 350 172 c 2,28,-1
 350 344 l 2,29,30
 350 357 350 357 337 365 c 2,31,-1
 193 365 l 1,32,-1
 193 158 l 1,25,-1
EndSplineSet
Validated: 1
EndChar

StartChar: c
Encoding: 99 99 59
Width: 474
Flags: W
LayerCount: 2
Fore
SplineSet
426 158 m 1,0,-1
 226 158 l 2,1,2
 206 158 206 158 206 172 c 2,3,-1
 206 646 l 2,4,5
 206 659 206 659 226 659 c 2,6,-1
 426 659 l 1,7,-1
 426 818 l 1,8,-1
 124 818 l 2,9,10
 96 818 96 818 75.5 794 c 128,-1,11
 55 770 55 770 55 742 c 2,12,-1
 55 76 l 2,13,14
 55 48 55 48 75.5 24 c 128,-1,15
 96 0 96 0 124 0 c 2,16,-1
 426 0 l 1,17,-1
 426 158 l 1,0,-1
EndSplineSet
Validated: 9
EndChar

StartChar: d
Encoding: 100 100 60
Width: 563
Flags: W
LayerCount: 2
Fore
SplineSet
515 529 m 2,0,-1
 515 289 l 2,1,2
 515 89 515 89 481 55 c 0,3,4
 453 27 453 27 425.5 13.5 c 128,-1,5
 398 0 398 0 350 0 c 2,6,-1
 48 0 l 1,7,-1
 48 818 l 1,8,-1
 350 818 l 2,9,10
 405 818 405 818 426 811 c 0,11,12
 454 804 454 804 481 770 c 0,13,14
 515 729 515 729 515 529 c 2,0,-1
330 659 m 2,15,-1
 200 659 l 1,16,-1
 200 158 l 1,17,-1
 330 158 l 2,18,19
 343 158 343 158 350 165 c 128,-1,20
 357 172 357 172 357 185 c 2,21,-1
 357 632 l 2,22,23
 357 645 357 645 350 652 c 128,-1,24
 343 659 343 659 330 659 c 2,15,-1
EndSplineSet
Validated: 1
EndChar

StartChar: e
Encoding: 101 101 61
Width: 452
Flags: W
LayerCount: 2
Fore
SplineSet
398 659 m 1,0,-1
 206 659 l 1,1,-1
 206 509 l 1,2,-1
 378 509 l 1,3,-1
 378 350 l 1,4,-1
 206 350 l 1,5,-1
 206 158 l 1,6,-1
 398 158 l 1,7,-1
 398 0 l 1,8,-1
 55 0 l 1,9,-1
 55 818 l 1,10,-1
 398 818 l 1,11,-1
 398 659 l 1,0,-1
EndSplineSet
Validated: 1
EndChar

StartChar: f
Encoding: 102 102 62
Width: 439
Flags: W
LayerCount: 2
Fore
SplineSet
398 659 m 1,0,-1
 206 659 l 1,1,-1
 206 509 l 1,2,-1
 365 509 l 1,3,-1
 365 344 l 1,4,-1
 206 344 l 1,5,-1
 206 0 l 1,6,-1
 55 0 l 1,7,-1
 55 818 l 1,8,-1
 398 818 l 1,9,-1
 398 659 l 1,0,-1
EndSplineSet
Validated: 1
EndChar

StartChar: g
Encoding: 103 103 63
Width: 563
Flags: W
LayerCount: 2
Fore
SplineSet
282 467 m 1,0,-1
 509 467 l 2,1,2
 522 467 522 467 522 454 c 2,3,-1
 522 76 l 2,4,5
 522 48 522 48 494.5 24 c 128,-1,6
 467 0 467 0 440 0 c 2,7,-1
 124 0 l 2,8,9
 96 0 96 0 75.5 24 c 128,-1,10
 55 48 55 48 55 76 c 2,11,-1
 55 742 l 2,12,13
 55 770 55 770 75.5 794 c 128,-1,14
 96 818 96 818 124 818 c 2,15,-1
 440 818 l 1,16,-1
 440 659 l 1,17,-1
 226 659 l 2,18,19
 206 659 206 659 206 646 c 2,20,-1
 206 172 l 2,21,22
 206 159 206 159 226 158 c 2,23,-1
 357 158 l 6,24,25
 370 158 370 158 371 172 c 6,26,-1
 371 296 l 6,27,28
 371 316 371 316 357 316 c 6,29,-1
 282 316 l 1,30,-1
 282 467 l 1,0,-1
EndSplineSet
Validated: 1
EndChar

StartChar: h
Encoding: 104 104 64
Width: 570
Flags: W
LayerCount: 2
Fore
SplineSet
365 344 m 1,0,-1
 365 0 l 1,1,-1
 522 0 l 1,2,-1
 522 818 l 5,3,-1
 365 818 l 5,4,-1
 365 509 l 1,5,-1
 206 509 l 1,6,-1
 206 818 l 5,7,-1
 55 818 l 5,8,-1
 55 0 l 1,9,-1
 206 0 l 1,10,-1
 206 344 l 1,11,-1
 365 344 l 1,0,-1
EndSplineSet
Validated: 9
EndChar

StartChar: i
Encoding: 105 105 65
Width: 281
Flags: W
LayerCount: 2
Fore
SplineSet
61 818 m 5,0,-1
 61 0 l 1,1,-1
 213 0 l 1,2,-1
 213 818 l 5,3,-1
 61 818 l 5,0,-1
EndSplineSet
Validated: 9
EndChar

StartChar: j
Encoding: 106 106 66
Width: 452
Flags: W
LayerCount: 2
Fore
SplineSet
41 158 m 1,0,-1
 41 0 l 1,1,-1
 330 0 l 2,2,3
 358 0 358 0 378 24 c 128,-1,4
 398 48 398 48 398 76 c 2,5,-1
 398 818 l 1,6,-1
 248 818 l 1,7,-1
 248 172 l 2,8,9
 248 159 248 159 226 158 c 2,10,-1
 41 158 l 1,0,-1
EndSplineSet
Validated: 9
EndChar

StartChar: k
Encoding: 107 107 67
Width: 570
Flags: W
LayerCount: 2
Fore
SplineSet
185 818 m 5,0,-1
 185 543 l 1,1,-1
 337 818 l 5,2,-1
 509 818 l 5,3,-1
 337 495 l 1,4,-1
 543 0 l 1,5,-1
 371 0 l 1,6,-1
 248 309 l 1,7,-1
 185 193 l 1,8,-1
 185 0 l 1,9,-1
 28 0 l 1,10,-1
 28 818 l 5,11,-1
 185 818 l 5,0,-1
EndSplineSet
Validated: 1
EndChar

StartChar: l
Encoding: 108 108 68
Width: 446
Flags: W
LayerCount: 2
Fore
SplineSet
200 818 m 5,0,-1
 200 158 l 1,1,-1
 398 158 l 1,2,-1
 398 0 l 1,3,-1
 41 0 l 1,4,-1
 41 818 l 5,5,-1
 200 818 l 5,0,-1
EndSplineSet
Validated: 1
EndChar

StartChar: m
Encoding: 109 109 69
Width: 748
Flags: W
LayerCount: 2
Fore
SplineSet
274 818 m 5,0,-1
 61 818 l 5,1,-1
 61 0 l 1,2,-1
 213 0 l 1,3,-1
 213 502 l 1,4,-1
 323 0 l 1,5,-1
 446 0 l 1,6,-1
 550 502 l 1,7,-1
 550 0 l 1,8,-1
 708 0 l 1,9,-1
 708 818 l 5,10,-1
 495 818 l 5,11,-1
 378 344 l 1,12,-1
 274 818 l 5,0,-1
EndSplineSet
Validated: 9
EndChar

StartChar: n
Encoding: 110 110 70
Width: 570
Flags: W
LayerCount: 2
Fore
SplineSet
35 818 m 5,0,-1
 35 0 l 1,1,-1
 193 0 l 1,2,-1
 193 461 l 1,3,-1
 378 0 l 1,4,-1
 536 0 l 1,5,-1
 536 818 l 5,6,-1
 378 818 l 5,7,-1
 378 378 l 1,8,-1
 193 818 l 5,9,-1
 35 818 l 5,0,-1
EndSplineSet
Validated: 9
EndChar

StartChar: o
Encoding: 111 111 71
Width: 548
Flags: W
LayerCount: 2
Fore
SplineSet
357 646 m 6,0,-1
 357 172 l 2,1,2
 357 159 357 159 344 158 c 2,3,-1
 213 158 l 2,4,5
 200 158 200 158 200 172 c 2,6,-1
 200 646 l 6,7,8
 200 659 200 659 213 659 c 6,9,-1
 344 659 l 6,10,11
 357 659 357 659 357 646 c 6,0,-1
48 742 m 6,12,-1
 48 76 l 2,13,14
 48 48 48 48 68.5 24 c 128,-1,15
 89 0 89 0 117 0 c 2,16,-1
 433 0 l 2,17,18
 461 0 461 0 488 24 c 128,-1,19
 515 48 515 48 515 76 c 2,20,-1
 515 742 l 6,21,22
 515 770 515 770 491 794 c 132,-1,23
 467 818 467 818 433 818 c 6,24,-1
 117 818 l 6,25,26
 89 818 89 818 68.5 794 c 132,-1,27
 48 770 48 770 48 742 c 6,12,-1
EndSplineSet
Validated: 9
EndChar

StartChar: p
Encoding: 112 112 72
Width: 522
Flags: W
LayerCount: 2
Fore
SplineSet
502 742 m 6,0,-1
 502 413 l 2,1,2
 502 385 502 385 478 361 c 128,-1,3
 454 337 454 337 426 337 c 2,4,-1
 185 337 l 1,5,-1
 185 0 l 1,6,-1
 28 0 l 1,7,-1
 28 818 l 5,8,-1
 426 818 l 6,9,10
 454 818 454 818 478 794 c 132,-1,11
 502 770 502 770 502 742 c 6,0,-1
185 495 m 1,12,-1
 330 495 l 2,13,14
 343 495 343 495 344 509 c 2,15,-1
 344 646 l 6,16,17
 344 659 344 659 330 659 c 6,18,-1
 185 659 l 5,19,-1
 185 495 l 1,12,-1
EndSplineSet
Validated: 1
EndChar

StartChar: q
Encoding: 113 113 73
Width: 548
Flags: W
LayerCount: 2
Fore
SplineSet
344 -110 m 1,0,-1
 282 0 l 1,1,-1
 117 0 l 2,2,3
 89 0 89 0 68.5 24 c 128,-1,4
 48 48 48 48 48 76 c 2,5,-1
 48 742 l 6,6,7
 48 770 48 770 68.5 794 c 132,-1,8
 89 818 89 818 117 818 c 6,9,-1
 433 818 l 6,10,11
 461 818 461 818 488 794 c 132,-1,12
 515 770 515 770 515 742 c 6,13,-1
 515 76 l 2,14,15
 515 48 515 48 491 24 c 128,-1,16
 467 0 467 0 440 0 c 1,17,-1
 502 -110 l 1,18,-1
 344 -110 l 1,0,-1
357 172 m 2,19,-1
 357 646 l 6,20,21
 357 659 357 659 344 659 c 6,22,-1
 213 659 l 6,23,24
 200 659 200 659 200 646 c 6,25,-1
 200 172 l 2,26,27
 200 159 200 159 206 158 c 2,28,-1
 344 158 l 2,29,30
 357 159 357 159 357 172 c 2,19,-1
EndSplineSet
Validated: 1
EndChar

StartChar: r
Encoding: 114 114 74
Width: 548
Flags: W
LayerCount: 2
Fore
SplineSet
515 742 m 6,0,-1
 515 433 l 2,1,2
 515 405 515 405 488 377.5 c 128,-1,3
 461 350 461 350 433 337 c 1,4,-1
 515 0 l 1,5,-1
 344 0 l 1,6,-1
 261 337 l 1,7,-1
 200 337 l 1,8,-1
 200 0 l 1,9,-1
 48 0 l 1,10,-1
 48 818 l 5,11,-1
 433 818 l 6,12,13
 461 818 461 818 488 794 c 132,-1,14
 515 770 515 770 515 742 c 6,0,-1
200 495 m 1,15,-1
 344 495 l 2,16,17
 357 495 357 495 357 509 c 2,18,-1
 357 646 l 6,19,20
 357 659 357 659 344 659 c 6,21,-1
 200 659 l 5,22,-1
 200 495 l 1,15,-1
EndSplineSet
Validated: 1
EndChar

StartChar: s
Encoding: 115 115 75
Width: 494
Flags: W
LayerCount: 2
Fore
SplineSet
440 818 m 5,0,-1
 440 659 l 5,1,-1
 213 659 l 6,2,3
 200 659 200 659 200 646 c 6,4,-1
 200 536 l 2,5,6
 200 523 200 523 213 522 c 2,7,-1
 385 522 l 2,8,9
 413 522 413 522 437 494.5 c 128,-1,10
 461 467 461 467 461 440 c 2,11,-1
 461 76 l 2,12,13
 461 48 461 48 440 24 c 128,-1,14
 419 0 419 0 385 0 c 2,15,-1
 48 0 l 1,16,-1
 48 158 l 1,17,-1
 289 158 l 2,18,19
 309 158 309 158 309 172 c 2,20,-1
 309 344 l 2,21,22
 309 364 309 364 289 365 c 2,23,-1
 124 365 l 2,24,25
 96 365 96 365 72 389 c 128,-1,26
 48 413 48 413 48 440 c 2,27,-1
 48 742 l 6,28,29
 48 770 48 770 68.5 794 c 132,-1,30
 89 818 89 818 124 818 c 6,31,-1
 440 818 l 5,0,-1
EndSplineSet
Validated: 1
EndChar

StartChar: t
Encoding: 116 116 76
Width: 439
Flags: W
LayerCount: 2
Fore
SplineSet
419 818 m 5,0,-1
 28 818 l 5,1,-1
 28 659 l 5,2,-1
 144 659 l 5,3,-1
 144 0 l 1,4,-1
 296 0 l 1,5,-1
 296 659 l 5,6,-1
 419 659 l 5,7,-1
 419 818 l 5,0,-1
EndSplineSet
Validated: 9
EndChar

StartChar: u
Encoding: 117 117 77
Width: 570
Flags: W
LayerCount: 2
Fore
SplineSet
124 0 m 2,0,-1
 440 0 l 2,1,2
 468 0 468 0 495 24 c 128,-1,3
 522 48 522 48 522 76 c 2,4,-1
 522 818 l 5,5,-1
 365 818 l 5,6,-1
 365 172 l 2,7,8
 365 159 365 159 350 158 c 2,9,-1
 226 158 l 2,10,11
 206 158 206 158 206 172 c 2,12,-1
 206 818 l 5,13,-1
 55 818 l 5,14,-1
 55 76 l 2,15,16
 55 48 55 48 75.5 24 c 128,-1,17
 96 0 96 0 124 0 c 2,0,-1
EndSplineSet
Validated: 9
EndChar

StartChar: v
Encoding: 118 118 78
Width: 556
Flags: W
LayerCount: 2
Fore
SplineSet
185 818 m 5,0,-1
 274 241 l 1,1,-1
 365 818 l 5,2,-1
 515 818 l 5,3,-1
 385 0 l 1,4,-1
 165 0 l 1,5,-1
 35 818 l 5,6,-1
 185 818 l 5,0,-1
EndSplineSet
Validated: 1
EndChar

StartChar: w
Encoding: 119 119 79
Width: 783
Flags: W
LayerCount: 2
Fore
SplineSet
165 818 m 1,0,-1
 241 350 l 1,1,-1
 337 818 l 5,2,-1
 454 818 l 5,3,-1
 550 350 l 1,4,-1
 618 818 l 1,5,-1
 770 818 l 1,6,-1
 639 0 l 1,7,-1
 495 0 l 1,8,-1
 398 509 l 1,9,-1
 289 0 l 1,10,-1
 152 0 l 1,11,-1
 20 818 l 1,12,-1
 165 818 l 1,0,-1
EndSplineSet
Validated: 1
EndChar

StartChar: x
Encoding: 120 120 80
Width: 528
Flags: W
LayerCount: 2
Fore
SplineSet
522 0 m 1,0,-1
 350 440 l 1,1,-1
 502 818 l 1,2,-1
 337 818 l 1,3,-1
 268 646 l 1,4,-1
 200 818 l 1,5,-1
 28 818 l 1,6,-1
 185 440 l 1,7,-1
 13 0 l 1,8,-1
 185 0 l 1,9,-1
 268 220 l 1,10,-1
 350 0 l 1,11,-1
 522 0 l 1,0,-1
EndSplineSet
Validated: 9
EndChar

StartChar: y
Encoding: 121 121 81
Width: 480
Flags: W
LayerCount: 2
Fore
SplineSet
323 426 m 5,0,-1
 323 426 l 5,1,-1
 467 818 l 5,2,-1
 316 818 l 5,3,-1
 248 639 l 5,4,-1
 172 818 l 5,5,-1
 13 818 l 5,6,-1
 165 426 l 5,7,-1
 165 0 l 1,8,-1
 323 0 l 1,9,-1
 323 426 l 5,0,-1
EndSplineSet
Validated: 5
EndChar

StartChar: z
Encoding: 122 122 82
Width: 535
Flags: W
LayerCount: 2
Fore
SplineSet
61 818 m 5,0,-1
 61 659 l 5,1,-1
 282 659 l 5,2,-1
 20 0 l 1,3,-1
 502 0 l 1,4,-1
 502 158 l 1,5,-1
 248 158 l 1,6,-1
 509 818 l 5,7,-1
 61 818 l 5,0,-1
EndSplineSet
Validated: 9
EndChar
